<!DOCTYPE svg PUBLIC "-//W3C//DTD SVG 1.1//EN" "http://www.w3.org/Graphics/SVG/1.1/DTD/svg11.dtd">
<!-- Uploaded to: SVG Repo, www.svgrepo.com, Transformed by: SVG Repo Mixer Tools -->
<svg version="1.1" id="_x32_" xmlns="http://www.w3.org/2000/svg" xmlns:xlink="http://www.w3.org/1999/xlink" width="223px" height="223px" viewBox="-46.08 -46.08 604.16 604.16" xml:space="preserve" fill="#ffffff" transform="matrix(1, 0, 0, 1, 0, 0)" stroke="#ffffff" stroke-width="4.608">
<g id="SVGRepo_bgCarrier" stroke-width="0"/>
<g id="SVGRepo_tracerCarrier" stroke-linecap="round" stroke-linejoin="round" stroke="#CCCCCC" stroke-width="52.224000000000004"> <style type="text/css">  .st0{fill:#0066FF;}  </style> <g> <path class="st0" d="M186.984,203.297v-81.578c0.016-19.141,7.688-36.219,20.219-48.813C219.766,60.391,236.859,52.719,256,52.703 c19.141,0.016,36.234,7.688,48.813,20.203c12.531,12.594,20.203,29.672,20.219,48.813v43.406h52.703v-43.406 c0.016-33.531-13.672-64.125-35.656-86.063C320.125,13.656,289.531-0.016,256,0c-33.531-0.016-64.125,13.656-86.063,35.656 c-22,21.938-35.672,52.531-35.656,86.063v81.578H46.438V512h419.125v-26.344V203.297H186.984z M99.141,256h313.719v203.297H99.141 V256z"/> <path class="st0" d="M293.969,339.547c0-20.969-17-37.953-37.969-37.953s-37.953,16.984-37.953,37.953 c0,15.453,9.266,28.703,22.516,34.609l-8.391,54.5H256h23.844l-8.406-54.5C284.688,368.25,293.969,355,293.969,339.547z"/> </g> </g>
<g id="SVGRepo_iconCarrier"> <style type="text/css">  .st0{fill:#0066FF;}  </style> <g> <path class="st0" d="M186.984,203.297v-81.578c0.016-19.141,7.688-36.219,20.219-48.813C219.766,60.391,236.859,52.719,256,52.703 c19.141,0.016,36.234,7.688,48.813,20.203c12.531,12.594,20.203,29.672,20.219,48.813v43.406h52.703v-43.406 c0.016-33.531-13.672-64.125-35.656-86.063C320.125,13.656,289.531-0.016,256,0c-33.531-0.016-64.125,13.656-86.063,35.656 c-22,21.938-35.672,52.531-35.656,86.063v81.578H46.438V512h419.125v-26.344V203.297H186.984z M99.141,256h313.719v203.297H99.141 V256z"/> <path class="st0" d="M293.969,339.547c0-20.969-17-37.953-37.969-37.953s-37.953,16.984-37.953,37.953 c0,15.453,9.266,28.703,22.516,34.609l-8.391,54.5H256h23.844l-8.406-54.5C284.688,368.25,293.969,355,293.969,339.547z"/> </g> </g>
</svg>