<?xml version="1.0" encoding="UTF-8" standalone="no"?>
<svg
   width="567.34082mm"
   height="99.453972mm"
   viewBox="0 0 567.34082 99.453972"
   version="1.1"
   id="svg1289"
   inkscape:version="1.1.2 (b8e25be833, 2022-02-05)"
   sodipodi:docname="OpenRIMSpoweredby1.svg"
   xmlns:inkscape="http://www.inkscape.org/namespaces/inkscape"
   xmlns:sodipodi="http://sodipodi.sourceforge.net/DTD/sodipodi-0.dtd"
   xmlns:xlink="http://www.w3.org/1999/xlink"
   xmlns="http://www.w3.org/2000/svg"
   xmlns:svg="http://www.w3.org/2000/svg"
   xmlns:rdf="http://www.w3.org/1999/02/22-rdf-syntax-ns#"
   xmlns:cc="http://creativecommons.org/ns#"
   xmlns:dc="http://purl.org/dc/elements/1.1/">
  <defs
     id="defs1283">
    <rect
       x="-150.37042"
       y="-75.185212"
       width="395.97545"
       height="388.45693"
       id="rect18163" />
    <rect
       x="979.91393"
       y="458.6298"
       width="35.086432"
       height="82.703734"
       id="rect16231" />
    <rect
       x="867.13612"
       y="65.160517"
       width="95.234602"
       height="55.135822"
       id="rect12343" />
    <filter
       inkscape:collect="always"
       style="color-interpolation-filters:sRGB"
       id="filter1876"
       x="-0.0028218521"
       width="1.0056437"
       y="-0.014929684"
       height="1.0298594">
      <feGaussianBlur
         inkscape:collect="always"
         stdDeviation="0.41425982"
         id="feGaussianBlur1878" />
    </filter>
  </defs>
  <sodipodi:namedview
     id="base"
     pagecolor="#ffffff"
     bordercolor="#666666"
     borderopacity="1.0"
     inkscape:pageopacity="0.0"
     inkscape:pageshadow="2"
     inkscape:zoom="0.39901463"
     inkscape:cx="858.36452"
     inkscape:cy="329.56185"
     inkscape:document-units="mm"
     inkscape:current-layer="a834"
     inkscape:document-rotation="0"
     showgrid="false"
     inkscape:window-width="1710"
     inkscape:window-height="1030"
     inkscape:window-x="32"
     inkscape:window-y="0"
     inkscape:window-maximized="1"
     inkscape:pagecheckerboard="0" />
  <metadata
     id="metadata1286">
    <rdf:RDF>
      <cc:Work
         rdf:about="">
        <dc:format>image/svg+xml</dc:format>
        <dc:type
           rdf:resource="http://purl.org/dc/dcmitype/StillImage" />
      </cc:Work>
    </rdf:RDF>
  </metadata>
  <g
     inkscape:label="Слой 1"
     inkscape:groupmode="layer"
     id="layer1"
     transform="translate(124.78043,-63.314058)">
    <a
       xlink:href="https://openrims.org"
       target="__blank"
       id="a834">
      <g
         aria-label="OpenRIMS"
         id="text1854"
         style="font-size:70.5556px;line-height:1.25;-inkscape-font-specification:'sans-serif, Normal';fill:#000080;stroke-width:0.264583;filter:url(#filter1876)">
        <path
           d="m -86.510267,85.965437 q 5.443255,0 10.438646,2.170412 5.029843,2.170411 8.681647,5.787764 3.686255,3.617353 5.856666,8.647197 2.204863,4.99539 2.204863,10.40419 0,5.44326 -2.204863,10.43865 -2.170411,4.99539 -5.891117,8.61274 -3.686255,3.61736 -8.784999,5.78777 -5.098745,2.13596 -10.645353,2.13596 -5.546607,0 -10.679803,-2.13596 -5.09874,-2.17041 -8.81945,-5.78777 -3.68625,-3.6518 -5.89112,-8.61274 -2.20486,-4.99539 -2.20486,-10.43865 0,-7.40696 3.72071,-13.608132 3.7207,-6.201177 10.12858,-9.784078 6.442336,-3.617353 14.090453,-3.617353 z m -0.620118,4.788686 q -5.856666,0 -10.955411,3.031686 -5.064294,3.031686 -8.061524,8.164881 -2.99724,5.1332 -2.99724,11.02431 0,5.96002 2.99724,11.09322 3.03168,5.09874 8.164877,8.09598 5.133196,2.96278 11.127666,2.96278 4.478627,0 8.578294,-1.757 4.099666,-1.79145 7.096901,-4.75423 2.997235,-2.96279 4.754235,-7.028 1.791451,-4.09967 1.791451,-8.54384 0,-4.54753 -1.791451,-8.68165 -1.757,-4.13412 -4.788686,-7.096902 -2.997235,-2.997235 -7.165803,-4.754235 -4.168568,-1.757 -8.750549,-1.757 z"
           style="font-family:Evolventa;-inkscape-font-specification:Evolventa"
           id="path3512" />
        <path
           d="m -51.818134,100.43485 q 0,0 5.236549,0 0,0 0,6.61459 2.411568,-3.68626 6.270078,-5.61551 3.89296,-1.929259 8.888352,-1.929259 5.684412,0 10.335294,2.652729 4.650882,2.65272 7.303607,7.3036 2.687176,4.61644 2.687176,10.30085 0,5.61551 -2.687176,10.26639 -2.687176,4.61643 -7.40696,7.26915 -4.685333,2.65273 -10.369745,2.65273 -4.788686,0 -8.647195,-1.92926 -3.824059,-1.9637 -6.373431,-5.64996 v 20.18828 h -5.236549 z m 19.981567,3.85851 q -6.373431,0 -10.748705,4.47862 -4.375274,4.47863 -4.375274,10.98987 0,6.51123 4.409725,10.95541 4.409725,4.40972 10.92096,4.40972 6.511235,0 10.852058,-4.34082 4.375275,-4.37527 4.375275,-10.88651 0,-6.82129 -4.375275,-11.19657 -4.340823,-4.40972 -11.058764,-4.40972 z"
           style="font-family:Evolventa;-inkscape-font-specification:Evolventa"
           id="path3514" />
        <path
           d="m 34.929427,121.44994 q 0,0 -34.89884117,0 0.3100588,5.71887 4.68533297,9.71518 4.3752743,3.96186 10.3352932,3.96186 4.409725,0 8.130431,-2.41157 3.720706,-2.44602 5.339902,-6.40788 h 5.443254 q -2.13596,6.09783 -7.303607,9.88743 -5.167647,3.75516 -11.472176,3.75516 -4.203019,0 -7.9926267,-1.58475 -3.7896076,-1.58474 -6.51123489,-4.30637 -2.72162731,-2.72162 -4.30637221,-6.51123 -1.584745,-3.78961 -1.584745,-7.99263 0,-5.51216 2.6527253,-10.12859 2.65272528,-4.61643 7.2347054,-7.26915 4.58198,-2.652729 10.0941361,-2.652729 5.718863,0 10.507549,2.824979 4.823137,2.82498 7.338058,7.68257 1.274686,2.44602 1.791451,5.02984 0.516765,2.54937 0.516765,6.40788 z M 0.16838974,116.73016 H 29.727329 q -1.309137,-5.75331 -5.339902,-9.09506 -3.996313,-3.34174 -9.611823,-3.34174 -5.4777051,0 -9.5084695,3.4451 -4.0307644,3.41064 -5.09874476,8.9917 z"
           style="font-family:Evolventa;-inkscape-font-specification:Evolventa"
           id="path3516" />
        <path
           d="m 42.129693,139.01994 q 0,0 0,-38.58509 0,0 5.236548,0 0,0 0,4.99539 4.754235,-5.925569 12.402352,-5.925569 4.099667,0 7.475863,1.550299 3.376195,1.51584 5.64996,4.44417 1.860353,2.48047 2.618274,5.44326 0.757922,2.96278 0.757922,7.82037 v 20.25717 h -5.202098 q 0,0 0,-20.25717 0,-3.89296 -0.654569,-6.27008 -0.620117,-2.41157 -2.101509,-4.23747 -3.272843,-3.96186 -9.16396,-3.96186 -3.16949,0 -5.822216,1.30913 -2.618274,1.30914 -4.134117,3.65181 -0.999078,1.58474 -1.41249,3.514 -0.413412,1.8948 -0.413412,5.02984 v 21.2218 z"
           style="font-family:Evolventa;-inkscape-font-specification:Evolventa"
           id="path3518" />
        <path
           d="m 106.03625,119.55514 q 0,0 14.60722,19.4648 0,0 -6.47679,0 0,0 -17.569996,-23.63337 8.406036,0 11.988936,-0.99908 7.54477,-2.23931 7.54477,-10.85205 0,-3.582906 -1.44694,-6.166729 -1.41249,-2.583824 -4.06522,-3.85851 -3.99631,-1.894804 -11.988939,-1.894804 h -7.338058 q 0,0 0,47.404543 0,0 -5.202098,0 0,0 0,-52.124327 0,0 12.884666,0 10.197489,0 14.986179,2.652726 3.6518,2.13596 5.5466,5.718862 1.92926,3.582902 1.92926,8.337139 0,6.99355 -3.96186,11.09321 -3.92742,4.06522 -11.43773,4.85759 z"
           style="font-family:Evolventa;-inkscape-font-specification:Evolventa"
           id="path3520" />
        <path
           d="m 128.91171,139.01994 q 0,0 0,-52.124327 0,0 5.20209,0 0,0 0,52.124327 0,0 -5.20209,0 z"
           style="font-family:Evolventa;-inkscape-font-specification:Evolventa"
           id="path3522" />
        <path
           d="m 144.82806,139.01994 q 0,0 0,-52.124327 0,0 8.09598,0 0,0 18.98249,44.372857 0,0 18.91358,-44.372857 0,0 8.09598,0 0,0 0,52.124327 0,0 -5.20209,0 0,0 0,-46.439915 0,0 -19.60261,46.439915 0,0 -4.54753,0 0,0 -19.5337,-46.439915 0,0 0,46.439915 0,0 -5.2021,0 z"
           style="font-family:Evolventa;-inkscape-font-specification:Evolventa"
           id="path3524" />
        <path
           d="m 205.84073,124.41273 q 0,0 5.58106,0 0.24116,2.48047 0.82682,4.09966 0.62012,1.58475 1.79145,2.96279 1.41249,1.72255 3.5829,2.68718 2.20487,0.96462 4.65089,0.96462 4.47862,0 7.37251,-2.92833 2.92833,-2.92833 2.92833,-7.44141 0,-4.96094 -3.514,-7.47586 -2.51492,-1.72255 -8.13043,-3.3762 -4.54753,-1.41249 -6.37343,-2.27376 -1.79145,-0.89573 -3.34175,-2.37712 -1.757,-1.6192 -2.72162,-4.06522 -0.96463,-2.48047 -0.96463,-5.202095 0,-6.132274 4.06521,-10.059685 4.09967,-3.961863 10.4042,-3.961863 6.40788,0 10.43864,3.892961 4.03077,3.89296 4.16857,10.231942 h -5.44325 q -0.27561,-4.237472 -2.82498,-6.786845 -2.51492,-2.549372 -6.47679,-2.549372 -3.92741,0 -6.47678,2.583823 -2.54937,2.549373 -2.54937,6.511235 0,1.791449 0.65457,3.410649 0.65457,1.61919 1.79145,2.65272 1.06798,0.89573 2.58382,1.5503 1.5503,0.65457 5.1332,1.72255 3.92741,1.17133 5.96002,2.06705 2.06705,0.89573 3.75515,2.10151 2.44602,1.86036 3.78961,4.78869 1.37804,2.92833 1.37804,6.33898 0,6.64904 -4.47863,11.05876 -4.47862,4.40973 -11.26547,4.40973 -7.028,0 -11.47217,-4.23747 -4.44418,-4.27192 -4.82314,-11.29992 z"
           style="font-family:Evolventa;-inkscape-font-specification:Evolventa"
           id="path3526" />
      </g>
    </a>
    <text
       xml:space="preserve"
       style="font-size:50.8px;line-height:1.25;font-family:sans-serif;stroke-width:0.264583"
       x="211.66666"
       y="-55.940475"
       id="text1858"><tspan
         sodipodi:role="line"
         id="tspan1856"
         x="211.66666"
         y="-55.940475"
         style="stroke-width:0.264583" /></text>
    <text
       xml:space="preserve"
       transform="matrix(0.26458333,0,0,0.26458333,-124.78043,63.314058)"
       id="text12341"
       style="font-style:normal;font-weight:normal;font-size:40px;line-height:1.25;font-family:sans-serif;white-space:pre;shape-inside:url(#rect12343);fill:#000000;fill-opacity:1;stroke:none" />
    <text
       xml:space="preserve"
       transform="matrix(0.26458333,0,0,0.26458333,-124.78043,63.314058)"
       id="text16229"
       style="font-style:normal;font-weight:normal;font-size:40px;line-height:1.25;font-family:sans-serif;white-space:pre;shape-inside:url(#rect16231);fill:#000000;fill-opacity:1;stroke:none" />
    <text
       xml:space="preserve"
       transform="matrix(0.26458333,0,0,0.26458333,-124.78043,63.314058)"
       id="text18161"
       style="font-style:normal;font-weight:normal;font-size:40px;line-height:1.25;font-family:sans-serif;white-space:pre;shape-inside:url(#rect18163);fill:#000000;fill-opacity:1;stroke:none" />
    <g
       aria-label="Powered by"
       id="text13326"
       style="font-size:22.5778px;line-height:1.25;font-family:Evolventa;-inkscape-font-specification:Evolventa;stroke-width:0.264583">
      <path
         d="m -54.040308,90.915657 q 0,0 0,-16.679791 0,0 4.59714,0 1.620575,0 2.645836,0.198437 1.036286,0.198438 1.807988,0.672484 0.948091,0.56224 1.466234,1.653647 0.518143,1.080383 0.518143,2.524569 0,1.256772 -0.429948,2.24896 -0.429949,0.992189 -1.234724,1.587502 -0.760678,0.56224 -1.785939,0.804775 -1.025261,0.242535 -2.711982,0.242535 h -3.208076 v 6.746882 z m 1.664672,-8.268238 h 3.097833 q 2.248961,0 3.208076,-0.56224 0.661459,-0.352778 1.014237,-1.091407 0.363803,-0.738629 0.363803,-1.730818 0,-1.223699 -0.48507,-2.039498 -0.48507,-0.826824 -1.389064,-1.113456 -1.080383,-0.363803 -3.439587,-0.363803 h -2.370228 z"
         id="path925" />
      <path
         d="m -35.243848,78.270766 q 1.796964,0 3.241149,0.848872 1.45521,0.837848 2.27101,2.326131 0.826823,1.488283 0.826823,3.329344 0,2.778127 -1.785939,4.608164 -1.785939,1.830037 -4.508945,1.830037 -1.86311,0 -3.373441,-0.837848 -1.510332,-0.837849 -2.370229,-2.315107 -0.848872,-1.477258 -0.848872,-3.307295 0,-2.811201 1.852085,-4.641237 1.852086,-1.841061 4.696359,-1.841061 z m -0.132292,1.53238 q -2.028474,0 -3.37344,1.422137 -1.344967,1.411112 -1.344967,3.54983 0,2.116668 1.378039,3.505732 1.37804,1.389064 3.47266,1.389064 2.039499,0 3.340368,-1.367015 1.311894,-1.37804 1.311894,-3.505733 0,-2.182814 -1.344967,-3.582903 -1.344966,-1.411112 -3.439587,-1.411112 z"
         id="path927" />
      <path
         d="m -23.491926,90.915657 q 0,0 -4.718407,-12.347235 0,0 1.675696,0 0,0 3.924657,10.340809 0,0 2.910419,-8.830477 0,0 1.37804,0 0,0 2.921444,8.830477 0,0 4.012851,-10.340809 0,0 1.6315991,0 0,0 -4.7955781,12.347235 0,0 -1.774915,0 0,0 -2.689933,-8.191067 0,0 -2.667885,8.191067 0,0 -1.807988,0 z"
         id="path929" />
      <path
         d="m 3.7271121,85.293255 q 0,0 -11.1676329,0 0.099219,1.830037 1.4993071,3.108858 1.4000882,1.267796 3.307295,1.267796 1.4111126,0 2.6017388,-0.771702 1.1906262,-0.782726 1.7087691,-2.050523 h 1.741842 q -0.6835076,1.951304 -2.3371551,3.163979 -1.65364753,1.201651 -3.6710975,1.201651 -1.3449666,0 -2.5576415,-0.507119 -1.2126748,-0.507119 -2.0835959,-1.37804 -0.870921,-0.870921 -1.3780396,-2.083595 -0.5071185,-1.212675 -0.5071185,-2.557642 0,-1.763891 0.8488724,-3.241149 0.8488724,-1.477259 2.3151065,-2.326131 1.4662341,-0.848872 3.2301248,-0.848872 1.83003659,0 3.36241662,0.903994 1.54340438,0.903994 2.34817948,2.458422 0.4078997,0.782727 0.5732645,1.609551 0.1653647,0.815799 0.1653647,2.050522 z M -7.3964235,83.782924 h 9.4588638 q -0.4189241,-1.841061 -1.70876912,-2.91042 -1.27882074,-1.069358 -3.07578438,-1.069358 -1.7528664,0 -3.0427114,1.102431 -1.2898451,1.091408 -1.6315989,2.877347 z"
         id="path931" />
      <path
         d="m 6.0311952,90.915657 q 0,0 0,-12.347235 0,0 1.6756962,0 0,0 0,1.752867 0.4850699,-1.014238 1.3118937,-1.499307 0.8378481,-0.48507 2.1828149,-0.551216 v 1.653647 q -3.4947086,0.33073 -3.4947086,3.792365 0,0 0,7.198879 0,0 -1.6756962,0 z"
         id="path933" />
      <path
         d="m 24.563073,85.293255 q 0,0 -11.167633,0 0.09922,1.830037 1.499307,3.108858 1.400088,1.267796 3.307295,1.267796 1.411112,0 2.601738,-0.771702 1.190627,-0.782726 1.70877,-2.050523 h 1.741842 q -0.683508,1.951304 -2.337156,3.163979 -1.653647,1.201651 -3.671097,1.201651 -1.344967,0 -2.557641,-0.507119 -1.212675,-0.507119 -2.083596,-1.37804 -0.870921,-0.870921 -1.37804,-2.083595 -0.507119,-1.212675 -0.507119,-2.557642 0,-1.763891 0.848873,-3.241149 0.848872,-1.477259 2.315106,-2.326131 1.466235,-0.848872 3.230125,-0.848872 1.830037,0 3.362417,0.903994 1.543404,0.903994 2.348179,2.458422 0.4079,0.782727 0.573265,1.609551 0.165365,0.815799 0.165365,2.050522 z M 13.439537,83.782924 h 9.458864 q -0.418924,-1.841061 -1.708769,-2.91042 -1.278821,-1.069358 -3.075785,-1.069358 -1.752866,0 -3.042711,1.102431 -1.289845,1.091408 -1.631599,2.877347 z"
         id="path935" />
      <path
         d="m 39.489995,74.235866 q 0,0 0,16.679791 0,0 -1.675697,0 0,0 0,-2.237936 -0.959115,1.344966 -2.061547,1.940279 -1.091407,0.595314 -2.634812,0.595314 -1.885158,0 -3.428562,-0.837848 -1.53238,-0.837849 -2.414325,-2.315107 -0.881946,-1.477258 -0.881946,-3.285246 0,-1.830037 0.848873,-3.31832 0.859896,-1.488283 2.359203,-2.337155 1.510332,-0.848872 3.362417,-0.848872 2.965541,0 4.850699,2.259985 v -6.294885 z m -6.636639,5.56728 q -1.984377,0 -3.373441,1.444185 -1.389064,1.433161 -1.389064,3.483684 0,2.083596 1.433161,3.516757 1.444186,1.422137 3.54983,1.422137 1.984377,0 3.39549,-1.45521 1.411112,-1.455209 1.411112,-3.505732 0,-2.050523 -1.45521,-3.47266 -1.455209,-1.433161 -3.571878,-1.433161 z"
         id="path937" />
      <path
         d="m 48.57403,90.915657 q 0,0 0,-16.679791 0,0 1.675697,0 0,0 0,6.449225 0.79375,-1.168577 2.039498,-1.785939 1.256772,-0.628386 2.811201,-0.628386 1.344967,0 2.546617,0.507118 1.212675,0.496095 2.072572,1.355991 0.870921,0.859897 1.378039,2.061547 0.507119,1.190627 0.507119,2.535593 0,1.830037 -0.848872,3.31832 -0.848873,1.477258 -2.34818,2.326131 -1.488283,0.837848 -3.329344,0.837848 -1.521355,0 -2.789152,-0.639411 -1.256772,-0.63941 -2.039498,-1.785939 v 2.127693 z m 6.416153,-11.112511 q -2.050523,0 -3.461636,1.433161 -1.400088,1.433161 -1.400088,3.516757 0,2.050523 1.422137,3.483684 1.433161,1.433161 3.483684,1.433161 2.083596,0 3.47266,-1.411112 1.400088,-1.422137 1.400088,-3.54983 0,-2.127693 -1.389064,-3.516757 -1.389064,-1.389064 -3.527781,-1.389064 z"
         id="path939" />
      <path
         d="m 65.000262,95.248214 q 0,0 2.01745,-4.740457 0,0 -4.795577,-11.939335 0,0 1.830036,0 0,0 3.913633,9.844715 0,0 4.178216,-9.844715 0,0 1.774915,0 0,0 -7.132733,16.679792 0,0 -1.78594,0 z"
         id="path941" />
    </g>
  </g>
</svg>
